<svg xmlns="http://www.w3.org/2000/svg" version="1.1" xmlns:xlink="http://www.w3.org/1999/xlink" xmlns:svgjs="http://svgjs.com/svgjs" width="256" height="512" x="0" y="0" viewBox="0 0 520 520" style="enable-background:new 0 0 512 512" xml:space="preserve" class=""><g><g id="_x37_21_x2C__Board_x2C__Confused_x2C__Direction_Of_Success"><g><path d="m232.5 32.5h30v376.667h-30z" fill="#757d8c" data-original="#757d8c"></path><path d="m332.5 402.5v55h-165v-55z" fill="#313a52" data-original="#313a52"></path><path d="m457.5 167.5c13.8 0 25 11.19 25 25s-11.2 25-25 25c-13.811 0-25-11.19-25-25s11.189-25 25-25z" fill="#FC0D0D" data-original="#d7e816" class=""></path><circle cx="82.5" cy="352.5" fill="#FC0D0D" r="40" data-original="#d7e816" class=""></circle><path d="m232.5 327.5h30v25h-30z" fill="#ffec6c" data-original="#ffec6c" class=""></path><path d="m362.5 447.5v35h-225v-35z" fill="#232b3f" data-original="#232b3f" class=""></path><path d="m387.5 187.5v90c-8.65 0-231.578 0-245 0l-65-45 65-45z" fill="#FFD400" data-original="#07cc66" class=""></path><path d="m452.5 107.5-65 45c-8.65 0-231.578 0-245 0v-90h245z" fill="#FC0D0D" data-original="#f88f19" class=""></path><g fill="#5cbeff"><circle cx="455" cy="295" r="7.5" fill="#FC0D0D" data-original="#5cbeff" class=""></circle><circle cx="445" cy="55" r="7.5" fill="#FC0D0D" data-original="#5cbeff" class=""></circle><circle cx="390" cy="375" r="7.5" fill="#FC0D0D" data-original="#5cbeff" class=""></circle><circle cx="175" cy="340" r="7.5" fill="#FC0D0D" data-original="#5cbeff" class=""></circle><circle cx="90" cy="450" r="7.5" fill="#FC0D0D" data-original="#5cbeff" class=""></circle><circle cx="80" cy="85" r="7.5" fill="#FC0D0D" data-original="#5cbeff" class=""></circle><circle cx="45" cy="190" r="7.5" fill="#FC0D0D" data-original="#5cbeff" class=""></circle></g><path d="m382.5 487.5h-260c-2.761 0-5-2.238-5-5s2.239-5 5-5h260c2.762 0 5 2.238 5 5s-2.238 5-5 5z" fill="#d94556" data-original="#d94556" class=""></path></g></g></g></svg>