<svg xmlns="http://www.w3.org/2000/svg" version="1.1" xmlns:xlink="http://www.w3.org/1999/xlink" xmlns:svgjs="http://svgjs.com/svgjs" width="256" height="512" x="0" y="0" viewBox="0 0 520 520" style="enable-background:new 0 0 512 512" xml:space="preserve" class=""><g><g id="_x37_17_x2C__Achieve_x2C__Awards_x2C__Laurel_Wheat_x2C__Success"><g><g><path d="m285 345c-2.761 0-5-2.238-5-5v-29.57c0-2.762 2.239-5 5-5 2.762 0 5 2.238 5 5v29.57c0 2.762-2.238 5-5 5z" fill="#33383f" data-original="#33383f"></path><path d="m240 345c-2.761 0-5-2.238-5-5v-29.57c0-2.762 2.239-5 5-5 2.762 0 5 2.238 5 5v29.57c0 2.762-2.238 5-5 5z" fill="#33383f" data-original="#33383f"></path><g fill="#19ab5c"><path d="m152.842 125.521c-1.617-2.238-4.743-2.742-6.98-1.123-11.084 8.013-21.336 17.196-30.471 27.294-1.838 1.96-1.795 5.034.119 6.948.975.975 2.254 1.462 3.533 1.462 1.282 0 2.565-.489 3.543-1.467.059-.06.117-.121.173-.183 8.68-9.602 18.423-18.333 28.961-25.951 2.238-1.617 2.74-4.742 1.122-6.98z" fill="#FC0D0D" data-original="#19ab5c" class=""></path><path d="m404.408 158.741c1.997-1.902 2.077-5.06.181-7.061-9.136-10.108-19.377-19.287-30.439-27.282-2.239-1.619-5.364-1.114-6.981 1.124s-1.114 5.364 1.124 6.981c10.52 7.603 20.255 16.333 28.938 25.949.057.063.116.125.177.187.976.986 2.264 1.482 3.555 1.482 1.237-.001 2.477-.458 3.445-1.38z" fill="#FC0D0D" data-original="#19ab5c" class=""></path><path d="m440.651 242.521c.424 2.331 2.465 4.094 4.919 4.094 2.761 0 5-2.244 5-5.005 0-.36-.039-.718-.116-1.07-2.55-11.643-6.187-23.082-10.81-34-.756-1.803-2.537-3.07-4.614-3.07-2.762 0-5 2.239-5 5 0 .713.153 1.413.441 2.053 4.345 10.277 7.77 21.04 10.18 31.998z" fill="#FC0D0D" data-original="#19ab5c" class=""></path><path d="m449.94 289.028c-2.763-.156-5.125 1.935-5.291 4.691-.645 10.739-2.217 21.419-4.674 31.743-.639 2.687 1.021 5.382 3.707 6.021.39.093.778.137 1.162.137 2.262 0 4.313-1.546 4.859-3.844 2.59-10.886 4.248-22.143 4.928-33.458.166-2.755-1.935-5.124-4.691-5.29z" fill="#FC0D0D" data-original="#19ab5c" class=""></path><path d="m426.12 369.75c-1.327 0-2.534.518-3.43 1.361-.373.35-.695.76-.951 1.22-5.682 10.228-12.381 19.961-19.909 28.931-1.71 1.923-1.683 4.864.124 6.762.981 1.03 2.3 1.549 3.62 1.549 1.241 0 2.485-.458 3.454-1.381.134-.128.261-.263.38-.404 7.931-9.437 14.989-19.675 20.981-30.436.464-.759.73-1.649.73-2.602.001-2.762-2.237-5-4.999-5z" fill="#FC0D0D" data-original="#19ab5c" class=""></path><path d="m359.965 438.195c-29.799 19.171-64.365 29.305-99.965 29.305-35.599 0-70.166-10.134-99.965-29.305-2.321-1.492-5.415-.822-6.91 1.5-1.494 2.322-.822 5.416 1.5 6.91 31.415 20.211 67.854 30.895 105.375 30.895s73.96-10.684 105.375-30.895c2.323-1.494 2.994-4.588 1.5-6.91s-4.589-2.995-6.91-1.5z" fill="#FC0D0D" data-original="#19ab5c" class=""></path><path d="m98.249 372.328c-.237-.426-.531-.808-.869-1.14-.902-.89-2.142-1.438-3.51-1.438-2.761 0-5 2.238-5 5 0 .95.267 1.84.729 2.598 5.996 10.751 13.055 20.993 20.98 30.445.094.111.202.229.306.332.975.976 2.251 1.463 3.528 1.463 1.28-.001 2.561-.49 3.538-1.468 1.86-1.86 1.943-4.826.259-6.791-7.546-9.003-14.261-18.76-19.961-29.001z" fill="#FC0D0D" data-original="#19ab5c" class=""></path><path d="m75.346 293.791c-.114-2.659-2.308-4.776-4.995-4.776-2.762 0-5 2.243-5 5.005 0 .1.003.2.009.3.677 11.279 2.338 22.536 4.937 33.458.547 2.298 2.598 3.844 4.86 3.844.383 0 .772-.044 1.161-.137 2.687-.64 4.347-3.335 3.707-6.021-2.461-10.339-4.034-20.993-4.679-31.673z" fill="#FC0D0D" data-original="#19ab5c" class=""></path><path d="m74.42 246.605c2.428 0 4.45-1.733 4.905-4.028 2.419-10.973 5.851-21.763 10.201-32.071.283-.636.434-1.33.434-2.036 0-2.761-2.238-5-5-5-2.082 0-3.867 1.272-4.619 3.083-4.613 10.919-8.248 22.349-10.804 33.974-.078.353-.117.722-.117 1.083 0 2.761 2.239 4.995 5 4.995z" fill="#FC0D0D" data-original="#19ab5c" class=""></path></g><path d="m215 260c-24.813 0-45-20.187-45-45v-35c0-2.761 2.239-5 5-5h40c2.762 0 5 2.239 5 5v75c0 2.762-2.238 5-5 5zm-35-75v30c0 17.602 13.062 32.21 30 34.644v-64.644z" fill="#faa71a" data-original="#faa71a" class=""></path><path d="m310 260c-2.761 0-5-2.238-5-5v-75c0-2.761 2.239-5 5-5h40c2.762 0 5 2.239 5 5v35c0 24.813-20.187 45-45 45zm5-75v64.644c16.939-2.434 30-17.042 30-34.644v-30z" fill="#faa71a" data-original="#faa71a" class=""></path><path d="m320 257.5c0 31.805-25.802 57.5-57.5 57.5-31.692 0-57.5-25.681-57.5-57.5v-2.5c0-10.077 0-94.458 0-105h115z" fill="#ffd400" data-original="#ffd400" class=""></path><path d="m320 340v55h-115v-55z" fill="#3f4751" data-original="#3f4751"></path><path d="m298.71 212.43-22.38 16.26 8.55 26.31-22.38-16.26-22.38 16.26 8.54-26.31-22.38-16.26h27.67l8.55-26.32 8.55 26.32z" fill="#ffffff" data-original="#ffffff"></path><path d="m65 442.5c11.04 0 20 8.95 20 20s-8.96 20-20 20c-11.05 0-20-8.95-20-20s8.95-20 20-20z" fill="#FC0D0D" data-original="#5cbeff" class=""></path><circle cx="452.5" cy="75" fill="#FC0D0D" r="30" data-original="#5cbeff" class=""></circle><path d="m435.04 208.49c-3.09 6.42-6.99 12.38-11.54 17.68-14.22-9.7-23.85-26.62-24.97-47.43-.43-8.05.44-16.02 2.41-23.64 3.149-12.08 9.069-23.27 16.97-32.47 14.22 9.71 23.86 26.65 24.98 47.46.72 13.46-2.209 26.69-7.85 38.4z" fill="#ffec6c" data-original="#ffec6c" class=""></path><path d="m426.11 374.76c-7.94-.25-15.78-1.649-23.16-4.13 3.63-16.83 15.69-32.12 34.54-41.01 18.87-8.89 40.54-9.47 59.25-3.19-3.61 16.83-15.66 32.12-34.51 41.011-11.44 5.389-23.91 7.719-36.12 7.319z" fill="#ffec6c" data-original="#ffec6c" class=""></path><path d="m93.88 374.76c-12.21.4-24.67-1.93-36.09-7.319-18.85-8.891-30.899-24.181-34.53-41.011 16.341-5.479 34.91-5.739 51.9.19 2.49.86 4.94 1.86 7.35 3 18.851 8.89 30.9 24.18 34.53 41.01-7.38 2.48-15.22 3.88-23.16 4.13z" fill="#ffec6c" data-original="#ffec6c" class=""></path><path d="m119.05 155.1c1.98 7.62 2.851 15.59 2.421 23.64-1.12 20.81-10.761 37.73-24.971 47.43-4.56-5.29-8.46-11.26-11.55-17.68-5.63-11.71-8.56-24.94-7.82-38.4 1.12-20.81 10.761-37.75 24.95-47.46 7.91 9.19 13.83 20.39 16.97 32.47z" fill="#ffec6c" data-original="#ffec6c" class=""></path><path d="m345.69 74.9c15.399 14.04 24.2 33.84 25.53 53.55-16.921 3.07-35.681-2.23-51.091-16.29-15.399-14.03-24.199-33.84-25.52-53.55 16.912-3.07 35.671 2.24 51.081 16.29z" fill="#ffd400" data-original="#ffd400" class=""></path><path d="m445.57 241.61c11.78-14.18 28.34-23.62 45.59-27.14 5.3 16.38 2.561 35.65-9.31 52.799-8.2 11.881-19.57 20.971-32.21 26.75-5.62 2.58-11.5 4.5-17.46 5.721-5.311-16.36-2.53-35.66 9.31-52.78 1.281-1.85 2.64-3.64 4.08-5.35z" fill="#ffd400" data-original="#ffd400" class=""></path><path d="m405.58 404.57c11.58 3.39 22.25 9.35 31.021 17.14-9.91 14.06-26.99 23.41-47.82 24.23-8.95.34-17.78-.931-26.11-3.54-11.06-3.45-21.25-9.25-29.68-16.73 9.94-14.06 27-23.41 47.85-24.229 8.459-.321 16.809.799 24.739 3.129z" fill="#ffd400" data-original="#ffd400" class=""></path><path d="m114.41 404.58c7.94-2.34 16.3-3.46 24.771-3.14 20.829.82 37.909 10.17 47.819 24.23-8.43 7.48-18.609 13.28-29.67 16.73-8.33 2.609-17.16 3.88-26.109 3.54-20.83-.82-37.91-10.171-47.83-24.23 8.769-7.78 19.439-13.74 31.019-17.13z" fill="#ffd400" data-original="#ffd400" class=""></path><path d="m74.42 241.6c1.44 1.72 2.801 3.51 4.08 5.36 11.87 17.12 14.62 36.42 9.311 52.78-5.96-1.221-11.84-3.141-17.46-5.721-12.63-5.789-23.99-14.88-32.2-26.75-11.851-17.149-14.621-36.419-9.311-52.799 17.27 3.52 33.82 12.96 45.58 27.13z" fill="#ffd400" data-original="#ffd400" class=""></path><path d="m225.42 58.6c-1.35 19.72-10.14 39.52-25.55 53.55-15.41 14.06-34.14 19.37-51.08 16.3 1.32-19.72 10.141-39.52 25.55-53.55 15.41-14.06 34.14-19.37 51.08-16.3z" fill="#ffd400" data-original="#ffd400" class=""></path><g fill="#3256c1"><circle cx="477.5" cy="155" r="7.5" fill="#FC0D0D" data-original="#3256c1" class=""></circle><circle cx="472.5" cy="410" r="7.5" fill="#FC0D0D" data-original="#3256c1" class=""></circle><circle cx="407.5" cy="470" r="7.5" fill="#FC0D0D" data-original="#3256c1" class=""></circle><circle cx="382.5" cy="55" r="7.5" fill="#FC0D0D" data-original="#3256c1" class=""></circle><circle cx="137.5" cy="45" r="7.5" fill="#FC0D0D" data-original="#3256c1" class=""></circle><circle cx="127.5" cy="470" r="7.5" fill="#FC0D0D" data-original="#3256c1" class=""></circle><circle cx="52.5" cy="125" r="7.5" fill="#FC0D0D" data-original="#3256c1" class=""></circle></g><path d="m330 400h-135c-2.761 0-5-2.238-5-5s2.239-5 5-5h135c2.762 0 5 2.238 5 5s-2.238 5-5 5z" fill="#33383f" data-original="#33383f"></path></g></g></g></g></svg>