<svg xmlns="http://www.w3.org/2000/svg" version="1.1" xmlns:xlink="http://www.w3.org/1999/xlink" xmlns:svgjs="http://svgjs.com/svgjs" width="256" height="512" x="0" y="0" viewBox="0 0 520 520" style="enable-background:new 0 0 512 512" xml:space="preserve" class=""><g><g id="_x37_49_x2C__Darts_x2C__Goal_x2C__Target"><g><g><path d="m156.425 410.76c-40.51-31.29-66.6-80.34-66.6-135.49 0-94.49 76.61-171.1 171.11-171.1 47.24 0 90.02 19.15 120.979 50.12h.011c72.664 72.665 65.561 193.115-16.49 256.47-60.963 47.163-147.112 47.843-209.01 0z" fill="#FC0D0D" data-original="#d94556" class=""></path><path d="m260.936 401.38c-72.411 0-131.11-56.46-131.11-126.11 0-69.64 58.7-126.1 131.11-126.1 72.003 0 131.1 56.085 131.1 126.1-.001 69.65-58.701 126.11-131.1 126.11z" fill="#bce4ff" data-original="#bce4ff" class=""></path><path d="m260.936 189.17c23.779 0 45.299 9.64 60.879 25.22s25.221 37.11 25.221 60.879c0 47.561-38.551 86.11-86.1 86.11-47.561 0-86.11-38.55-86.11-86.11-.001-47.549 38.549-86.099 86.11-86.099z" fill="#FC0D0D" data-original="#d94556" class=""></path><path d="m454.455 387.5c11.04 0 20 8.95 20 20s-8.96 20-20 20c-11.05 0-20-8.95-20-20s8.95-20 20-20z" fill="#FC0D0D" data-original="#c6f9de" class=""></path><circle cx="84.455" cy="92.5" fill="#FC0D0D" r="35" data-original="#c6f9de" class=""></circle><path d="m390.535 451.55c5.641 9.16-.95 20.95-11.7 20.95-3.47 0-6.819-1.31-9.36-3.67l-39.699-36.87c12.779-5.62 24.75-12.76 35.66-21.2z" fill="#33383f" data-original="#33383f" class=""></path><path d="m192.085 431.96-39.7 36.87c-1.27 1.18-2.74 2.1-4.33 2.72-1.58.62-3.28.95-5.02.95-10.76 0-17.35-11.79-11.71-20.95l25.1-40.79c10.92 8.44 22.88 15.58 35.66 21.2z" fill="#33383f" data-original="#33383f" class=""></path><path d="m260.936 317.39c-23.26 0-42.121-18.859-42.121-42.12 0-23.25 18.86-42.109 42.121-42.109 11.619 0 22.149 4.71 29.77 12.34h.01c7.62 7.62 12.33 18.141 12.33 29.77-.001 23.259-18.851 42.119-42.11 42.119z" fill="#bce4ff" data-original="#bce4ff" class=""></path><g fill="#f88f19"><circle cx="466.955" cy="195" r="7.5" fill="#FC0D0D" data-original="#f88f19" class=""></circle><circle cx="466.955" cy="335" r="7.5" fill="#FC0D0D" data-original="#f88f19" class=""></circle><circle cx="381.955" cy="45" r="7.5" fill="#FC0D0D" data-original="#f88f19" class=""></circle><circle cx="261.955" cy="475" r="7.5" fill="#FC0D0D" data-original="#f88f19" class=""></circle><circle cx="166.955" cy="70" r="7.5" fill="#FC0D0D" data-original="#f88f19" class=""></circle><circle cx="86.955" cy="405" r="7.5" fill="#FC0D0D" data-original="#f88f19" class=""></circle><circle cx="46.955" cy="225" r="7.5" fill="#FC0D0D" data-original="#f88f19" class=""></circle></g><path d="m402.189 134.013c-1.953-1.951-5.118-1.95-7.07.002l-16.684 16.694c-.018.017-.039.028-.057.045l-91.02 91.03c-.064.058-.128.118-.189.18l-26.051 26.05c-1.952 1.952-1.952 5.118 0 7.07.977.977 2.256 1.465 3.536 1.465s2.56-.488 3.536-1.465l25.868-25.868c.065-.059.129-.12.191-.182l91.155-91.165c.018-.017.038-.028.056-.046l16.729-16.74c1.956-1.952 1.954-5.118 0-7.07z" fill="#3f4751" data-original="#3f4751"></path><path d="m480.545 92.88-40.94 40.95-40.95 3.72 40.95-40.95z" fill="#faa71a" data-original="#faa71a" class=""></path><path d="m443.325 55.66-3.72 40.94-40.95 40.95 3.73-40.95z" fill="#ffd400" data-original="#ffd400"></path></g></g></g></g></svg>